<svg width="1024" height="1280" viewBox="0 0 1024 1280" fill="none" xmlns="http://www.w3.org/2000/svg">
  <rect width="1024" height="1280" rx="72" fill="#F2FBFF"/>
  <rect x="44" y="44" width="936" height="1192" rx="56" fill="url(#bg)"/>
  <circle cx="820" cy="164" r="118" fill="#FFF4AA" fill-opacity="0.9"/>
  <circle cx="820" cy="164" r="72" fill="#FFE46B"/>
  <path d="M132 284C198 206 292 154 398 142" stroke="#9CE6FF" stroke-width="18" stroke-linecap="round"/>
  <path d="M90 392C176 290 284 228 412 214" stroke="#D8F7FF" stroke-width="18" stroke-linecap="round"/>
  <path d="M640 1010C790 980 890 916 958 818" stroke="#8FE7FF" stroke-width="24" stroke-linecap="round" opacity="0.5"/>
  <ellipse cx="530" cy="708" rx="204" ry="332" fill="url(#bottle)" transform="rotate(8 530 708)"/>
  <rect x="470" y="324" width="170" height="108" rx="36" fill="#F8FEFF" transform="rotate(8 470 324)"/>
  <rect x="430" y="432" width="244" height="530" rx="108" fill="url(#glass)" transform="rotate(8 430 432)"/>
  <rect x="472" y="534" width="178" height="210" rx="24" fill="#FCFEFF" fill-opacity="0.92" transform="rotate(8 472 534)"/>
  <text x="564" y="620" text-anchor="middle" fill="#1764B5" font-size="76" font-family="'Times New Roman', serif" transform="rotate(8 564 620)">冰爽</text>
  <text x="564" y="706" text-anchor="middle" fill="#1764B5" font-size="96" font-family="'Times New Roman', serif" transform="rotate(8 564 706)">上新</text>
  <text x="560" y="776" text-anchor="middle" fill="#2D8DE0" font-size="34" font-family="'Microsoft YaHei', 'PingFang SC', sans-serif" transform="rotate(8 560 776)">Summer Sparkling Drink</text>
  <circle cx="338" cy="858" r="126" fill="#FFCE3B"/>
  <circle cx="338" cy="858" r="84" fill="#FFE68B"/>
  <circle cx="338" cy="858" r="66" fill="#FFF6CC"/>
  <circle cx="742" cy="902" r="98" fill="#FFCE3B"/>
  <circle cx="742" cy="902" r="66" fill="#FFE68B"/>
  <circle cx="742" cy="902" r="48" fill="#FFF6CC"/>
  <circle cx="264" cy="980" r="78" fill="#FFB33C"/>
  <circle cx="264" cy="980" r="52" fill="#FFE17A"/>
  <circle cx="264" cy="980" r="38" fill="#FFF3C2"/>
  <path d="M172 954C124 1020 108 1092 124 1170" stroke="#45B56B" stroke-width="18" stroke-linecap="round"/>
  <path d="M200 922C162 948 142 984 136 1028" stroke="#5CC87D" stroke-width="14" stroke-linecap="round"/>
  <path d="M858 972C908 1016 932 1076 922 1152" stroke="#45B56B" stroke-width="18" stroke-linecap="round"/>
  <path d="M824 938C864 958 890 994 902 1040" stroke="#5CC87D" stroke-width="14" stroke-linecap="round"/>
  <path d="M120 1048C204 1116 296 1158 392 1174" stroke="#A0EBFF" stroke-width="20" stroke-linecap="round"/>
  <path d="M564 1148H904" stroke="#FFD93D" stroke-width="84" stroke-linecap="round"/>
  <text x="734" y="1168" text-anchor="middle" fill="#1764B5" font-size="54" font-family="'Microsoft YaHei', 'PingFang SC', sans-serif" font-weight="700">适合小红书 4:5</text>
  <text x="144" y="240" fill="#1570C8" font-size="112" font-family="'Microsoft YaHei', 'PingFang SC', sans-serif" font-weight="700">冰爽上新</text>
  <text x="148" y="338" fill="#2D8DE0" font-size="42" font-family="'Microsoft YaHei', 'PingFang SC', sans-serif">夏日饮品海报 · 清爽明亮 · 适合引流展示</text>
  <defs>
    <linearGradient id="bg" x1="512" y1="44" x2="512" y2="1236" gradientUnits="userSpaceOnUse">
      <stop stop-color="#E7FAFF"/>
      <stop offset="0.58" stop-color="#B9F0FF"/>
      <stop offset="1" stop-color="#7DDBFF"/>
    </linearGradient>
    <linearGradient id="bottle" x1="530" y1="376" x2="530" y2="1040" gradientUnits="userSpaceOnUse">
      <stop stop-color="#F9FFFF" stop-opacity="0.94"/>
      <stop offset="0.4" stop-color="#DBF5FF" stop-opacity="0.88"/>
      <stop offset="1" stop-color="#B6E7FF" stop-opacity="0.92"/>
    </linearGradient>
    <linearGradient id="glass" x1="552" y1="432" x2="552" y2="962" gradientUnits="userSpaceOnUse">
      <stop stop-color="#F8FEFF" stop-opacity="0.82"/>
      <stop offset="1" stop-color="#97DFFF" stop-opacity="0.9"/>
    </linearGradient>
  </defs>
</svg>
